<svg width="21" height="21" viewBox="0 0 21 21" fill="none" xmlns="http://www.w3.org/2000/svg">
<path fill-rule="evenodd" clip-rule="evenodd" d="M11.3333 11.3333V17.1667C11.3333 17.3877 11.2455 17.5996 11.0893 17.7559C10.933 17.9122 10.721 18 10.5 18C10.279 18 10.067 17.9122 9.91074 17.7559C9.75446 17.5996 9.66667 17.3877 9.66667 17.1667V11.3333H3.83333C3.61232 11.3333 3.40036 11.2455 3.24408 11.0893C3.0878 10.933 3 10.721 3 10.5C3 10.279 3.0878 10.067 3.24408 9.91074C3.40036 9.75446 3.61232 9.66667 3.83333 9.66667H9.66667V3.83333C9.66667 3.61232 9.75446 3.40036 9.91074 3.24408C10.067 3.0878 10.279 3 10.5 3C10.721 3 10.933 3.0878 11.0893 3.24408C11.2455 3.40036 11.3333 3.61232 11.3333 3.83333V9.66667H17.1667C17.3877 9.66667 17.5996 9.75446 17.7559 9.91074C17.9122 10.067 18 10.279 18 10.5C18 10.721 17.9122 10.933 17.7559 11.0893C17.5996 11.2455 17.3877 11.3333 17.1667 11.3333H11.3333Z" fill="white"/>
</svg>
